<svg xmlns="http://www.w3.org/2000/svg" width="180" height="30" viewBox="0 0 180 30">
    <path fill="#FFF" fill-rule="nonzero" d="M29.142 29.518H18.774l-6.85-10.754-3.26 3.597v7.194H0V.297h8.665v11.718L18.44.297h9.998L17.81 12.163l11.331 17.355zM55.766 2.855c2.296 1.855 3.444 4.487 3.444 7.825v18.838H48.657v-3.19c-.89 1.187-2.037 2.077-3.481 2.708-1.444.63-3.11.964-5 .964-3.073 0-5.442-.816-7.183-2.485-1.74-1.668-2.629-3.856-2.629-6.637 0-2.819.963-4.97 2.851-6.49 1.889-1.52 4.666-2.299 8.332-2.336h7.11v-.111c0-1.224-.445-2.151-1.296-2.819-.852-.667-2.111-1-3.74-1-1.185 0-2.518.185-4.074.518-1.555.371-3.11.89-4.665 1.558L32.216 3.04C37.103 1.038 41.769.037 46.176.037c4.11 0 7.294.964 9.59 2.818zm-9.035 19.32c.889-.519 1.518-1.26 1.926-2.187v-2.633h-4.888c-2.185 0-3.259.89-3.259 2.707 0 .927.296 1.631.852 2.15.555.483 1.37.742 2.407.742 1.074 0 2.073-.26 2.962-.778zM90.351 1.41c1.593.89 2.815 2.188 3.667 3.857.888 1.668 1.296 3.597 1.296 5.822v18.43H84.575V14.203c0-1.41-.37-2.559-1.148-3.412-.777-.853-1.777-1.298-3-1.298-1.443.037-2.628.556-3.48 1.595-.852 1.038-1.296 2.373-1.296 4.042v14.35H64.913V.446h10.775v4.487c1.037-1.595 2.333-2.818 3.851-3.671C81.057.408 82.872 0 84.91 0c2.036.037 3.888.52 5.443 1.41zm29.958.408c2.406 1.224 4.258 2.967 5.591 5.192 1.333 2.225 1.963 4.82 1.963 7.713 0 2.892-.667 5.488-2.037 7.75-1.333 2.262-3.222 3.968-5.666 5.192-2.443 1.224-5.258 1.817-8.442 1.817h-11.183V0h11.479c3.147 0 5.925.593 8.295 1.817zm-3.555 17.392c.925-1.076 1.37-2.485 1.37-4.265 0-1.78-.482-3.189-1.481-4.301-1-1.113-2.26-1.632-3.851-1.632h-3v11.792h3.296c1.518.038 2.74-.519 3.666-1.594zM132.787.482h10.776v29.036h-10.776V.482zm39.585 1.372c2.407 1.224 4.295 2.967 5.628 5.192 1.333 2.225 2 4.858 2 7.861 0 2.967-.667 5.563-2 7.825-1.333 2.262-3.221 4.005-5.628 5.228-2.407 1.224-5.258 1.855-8.48 1.855-3.221 0-6.073-.63-8.517-1.855-2.444-1.223-4.332-2.966-5.665-5.228-1.333-2.262-2-4.858-2-7.825 0-3.003.667-5.6 2-7.861 1.333-2.225 3.221-3.968 5.665-5.192C157.82.63 160.634 0 163.892 0c3.259 0 6.073.63 8.48 1.854zM160.3 10.31c-.962 1.187-1.444 2.744-1.444 4.672 0 1.966.482 3.523 1.444 4.71.963 1.187 2.222 1.78 3.851 1.78 1.556 0 2.815-.593 3.777-1.78.963-1.187 1.445-2.744 1.445-4.71 0-1.928-.482-3.485-1.445-4.672-.962-1.187-2.221-1.78-3.777-1.78-1.629 0-2.888.593-3.85 1.78z"/>
</svg>
